<?xml version="1.0" encoding="UTF-8"?>
<svg id="Layer_1" data-name="Layer 1" xmlns="http://www.w3.org/2000/svg" viewBox="0 0 960 960">
  <defs>
    <style>
      .cls-1 {
        fill: #1c3c3c;
        stroke-width: 0px;
      }
    </style>
  </defs>
  <path class="cls-1" d="M275.07,447.27c-3.72,0-7.22,1.44-9.84,4.06l-10.59,10.56c-2.86,2.85-4.32,6.8-4.02,10.86.02.22.04.44.06.67.38,3.11,1.75,5.92,3.96,8.12,1.52,1.52,3.21,2.48,5.25,3.16.11.61.16,1.23.16,1.86,0,2.8-1.09,5.42-3.06,7.39l-.65.65c-3.54-1.21-6.48-2.97-9.15-5.62-3.54-3.53-5.88-7.98-6.76-12.87l-.12-.68-.54.44c-.36.29-.71.61-1.03.93l-10.59,10.56c-5.43,5.41-5.43,14.23,0,19.64,2.71,2.71,6.28,4.06,9.85,4.06s7.13-1.36,9.84-4.06l10.59-10.56c5.43-5.41,5.43-14.22,0-19.64-1.45-1.44-3.17-2.53-5.12-3.23-.11-.64-.16-1.27-.16-1.89,0-3.04,1.2-5.92,3.41-8.12,3.54,1.21,6.68,3.16,9.34,5.81,3.53,3.52,5.86,7.97,6.76,12.87l.12.68.54-.44c.37-.29.71-.61,1.04-.94l10.59-10.56c5.43-5.41,5.43-14.23,0-19.64-2.63-2.62-6.12-4.06-9.85-4.06h-.01Z"/>
  <path class="cls-1" d="M269.4,408.67h-138.51c-39.46,0-71.57,32.02-71.57,71.38s32.11,71.38,71.57,71.38h138.51c39.46,0,71.57-32.02,71.57-71.38s-32.11-71.38-71.57-71.38ZM201.08,520.57c-2.28.47-4.85.56-6.6-1.26-.64,1.48-2.15.7-3.31.51-.11.3-.2.56-.3.86-3.86.26-6.75-3.67-8.59-6.63-3.65-1.97-7.79-3.17-11.52-5.23-.21,3.4.53,7.61-2.71,9.8-.16,6.53,9.91.77,10.83,5.64-.72.08-1.51-.11-2.08.44-2.63,2.55-5.64-1.93-8.67-.08-4.07,2.04-4.47,3.71-9.5,4.13-.28-.42-.16-.7.07-.96,1.42-1.64,1.52-3.58,3.94-4.28-2.49-.39-4.57.98-6.67,2.06-2.73,1.11-2.71-2.51-6.9.19-.47-.38-.24-.72.02-1.01,1.07-1.3,2.47-1.49,4.05-1.42-7.78-4.33-11.44,5.29-15.04.51-1.08.29-1.49,1.26-2.17,1.94-.59-.64-.14-1.42-.11-2.18-.7-.33-1.59-.49-1.38-1.61-1.37-.46-2.33.35-3.36,1.12-.92-.71.62-1.76.91-2.5.82-1.43,2.7-.29,3.65-1.32,2.71-1.53,6.48.96,9.57.54,2.38.3,5.33-2.14,4.14-4.58-2.55-3.25-2.1-7.49-2.15-11.38-.31-2.26-5.76-5.15-7.34-7.59-1.95-2.2-3.46-4.75-4.98-7.25-5.48-10.57-3.75-24.15-10.65-33.97-3.12,1.72-7.19.91-9.88-1.4-1.45,1.32-1.52,3.05-1.63,4.88-3.49-3.48-3.05-10.04-.26-13.91,1.14-1.53,2.5-2.78,4.02-3.89.34-.25.46-.49.45-.88,2.76-12.36,21.55-9.98,27.49-1.22,4.31,5.39,5.61,12.52,10.5,17.52,6.58,7.18,14.07,13.5,20.14,21.15,5.74,6.99,9.84,15.18,13.42,23.44,1.46,2.74,1.47,6.1,3.64,8.44,1.07,1.41,6.28,5.26,5.15,6.62.65,1.41,5.52,3.36,3.83,4.73h0ZM292.36,478.4l-10.59,10.56c-2.82,2.81-6.31,4.91-10.08,6.06l-.19.06-.07.19c-1.23,3.24-3.1,6.13-5.56,8.58l-10.59,10.56c-4.62,4.6-10.76,7.14-17.3,7.14s-12.68-2.53-17.3-7.14c-9.54-9.51-9.54-24.99,0-34.5l10.59-10.56c2.83-2.83,6.23-4.86,10.07-6.04l.19-.06.07-.19c1.23-3.24,3.11-6.14,5.58-8.61l10.59-10.56c4.62-4.6,10.76-7.14,17.3-7.14s12.68,2.53,17.3,7.14c4.62,4.6,7.16,10.73,7.16,17.25s-2.54,12.66-7.16,17.25h0Z"/>
  <path class="cls-1" d="M158.02,507.8c-.93,3.61-1.23,9.76-5.94,9.94-.39,2.08,1.45,2.87,3.12,2.2,1.65-.76,2.44.6,3,1.95,2.56.37,6.33-.85,6.48-3.87-3.81-2.19-5-6.36-6.65-10.22h0Z"/>
  <path class="cls-1" d="M407.28,446.08h-12.57v76.27h53.93v-12.15h-41.36v-64.12Z"/>
  <path class="cls-1" d="M511.84,522.35h12.57v-.14h.16l.02-.56c0-.16.05-1.69-.18-4.04v-28.39c0-10.68,7.79-15.54,15.02-15.54,7.78,0,11.57,4.19,11.57,12.83v35.84h12.57v-37.51c0-14.25-9.05-23.1-23.62-23.1-6.19,0-11.71,1.76-16.05,5.1l-.12-4.05h-11.94v59.56h-.02Z"/>
  <path class="cls-1" d="M614.76,467.16c-4.37-3.55-9.99-5.42-16.33-5.42-16.95,0-27.49,11.69-27.49,30.51s10.53,30.62,27.49,30.62c5.98,0,11.32-1.63,15.52-4.73-.36,9.23-6.14,14.72-15.63,14.72-7.97,0-12.48-2.54-13.41-7.54l-.12-.62-12.22,3.73.11.5c2.06,9.94,11.37,15.88,24.9,15.88,9.18,0,16.38-2.5,21.41-7.43,5.07-4.98,7.64-12.14,7.64-21.3v-53.28h-11.63l-.25,4.38h0ZM613.97,492.78c0,11.36-5.53,18.15-14.81,18.15-9.94,0-15.64-6.81-15.64-18.67s5.7-18.57,15.64-18.57c9.05,0,14.72,6.76,14.81,17.63v1.46Z"/>
  <path class="cls-1" d="M688.6,498.16c-2.61,8.43-9.3,13.08-18.84,13.08-13.64,0-22.12-10.36-22.12-27.03s8.55-27.03,22.33-27.03c9.53,0,15.03,3.74,17.82,12.11l1.3,3.92,11.87-5.57-1.12-3.14c-4.52-12.74-14.96-19.46-30.19-19.46-10.35,0-19.14,3.74-25.41,10.8-6.21,7-9.49,16.81-9.49,28.38,0,23.8,13.74,39.18,35.01,39.18,14.99,0,26.6-7.84,31.05-20.98l1.14-3.36-12.19-4.64-1.16,3.74h0Z"/>
  <path class="cls-1" d="M735.55,461.74c-6,0-11.35,1.65-15.54,4.77v-27.74h-12.57v83.59h12.57v-33.12c0-10.75,7.78-15.64,15.02-15.64,7.78,0,11.57,4.19,11.57,12.83v35.94h12.57v-37.62c0-13.97-9.27-22.99-23.62-22.99h0Z"/>
  <path class="cls-1" d="M832.67,436.97c-4.67,0-8.06,3.39-8.06,8.06s3.39,8.06,8.06,8.06,8.06-3.39,8.06-8.06-3.39-8.06-8.06-8.06Z"/>
  <path class="cls-1" d="M877.44,461.74c-6.19,0-11.71,1.76-16.05,5.1l-.12-4.05h-11.94v59.56h12.57v-33.12c0-10.68,7.78-15.54,15.02-15.54,7.78,0,11.57,4.19,11.57,12.83v35.84h12.57v-37.51c0-14.25-9.05-23.1-23.62-23.1h-.01Z"/>
  <path class="cls-1" d="M838.78,462.79h-12.51v29.53c-3.47-2.92-7.56-5.12-12.18-6.56v-3c0-13.16-8.64-21.01-23.1-21.01-11.75,0-20.54,5.52-24.12,15.13l-.96,2.59,10.08,7.43,1.73-4.51c2.28-5.94,6.5-8.71,13.28-8.71s10.53,3.26,10.53,9.69v.33c-.4-.02-.81-.03-1.22-.03-13.46-.22-23.28,2.93-29.19,9.34-6.04,6.56-5.51,13.92-5.43,14.74l.06.57h.06c.94,9.18,8.95,15.07,20.6,15.07,6.41,0,12.34-1.79,16.82-5.05l.05,4.01h10.82v-18.63l-.23-.17c-1.53-1.12-4.2-2.57-8.21-3.08-1.26-.16-2.46-.24-3.57-.21h-.56v1.71c0,3.94-4.53,9.49-14.6,9.49-7.44,0-8.54-3.13-8.54-4.99v-.19c.06-.84.41-2.88,2.26-4.79,2.35-2.43,7.63-5.26,19.47-5.08,8.58.14,15.16,2.53,19.56,7.13,5.4,5.64,6.42,13.37,6.61,16.39v2.44h12.51v-59.56h0Z"/>
  <path class="cls-1" d="M479.33,461.48c-11.75,0-20.54,5.52-24.12,15.13l-.96,2.6,10.08,7.43,1.73-4.51c2.28-5.94,6.5-8.71,13.28-8.71s10.53,3.26,10.53,9.69v1.51l-12.95,2.28c-15.18,2.69-22.88,9.18-22.88,19.28s8.12,16.94,20.7,16.94c6.42,0,12.34-1.79,16.82-5.05l.05,4.01h10.82v-39.6c0-13.16-8.64-21.01-23.1-21.01h0ZM489.86,496.4v5.31c0,3.94-4.53,9.49-14.6,9.49-7.44,0-8.54-3.13-8.54-4.99,0-1.66,0-5.53,13.17-7.98l9.97-1.82h0Z"/>
</svg>